<?xml version="1.0" encoding="UTF-8"?>
<svg width="126px" height="27px" viewBox="0 0 126 27" version="1.1" xmlns="http://www.w3.org/2000/svg" xmlns:xlink="http://www.w3.org/1999/xlink">
    <!-- Generator: Sketch 48.2 (47327) - http://www.bohemiancoding.com/sketch -->
    <title>Vultures logo</title>
    <desc>Created with Sketch.</desc>
    <defs></defs>
    <g id="Artboard" stroke="none" stroke-width="1" fill="none" fill-rule="evenodd" transform="translate(-82.000000, -31.000000)">
        <path d="M86.392,32.196 L93.664,51.492 L100.72,32.52 L104.716,32.52 L95.356,57 L91.828,57 L82.36,32.772 L86.392,32.196 Z M118.304,51.744 L118.304,39.54 L122.372,39.54 L122.372,57 L119.636,57 L118.916,54.912 C117.907995,55.7280041 116.804006,56.3759976 115.604,56.856 C114.403994,57.3360024 113.276005,57.576 112.22,57.576 C108.379981,57.576 106.46,55.3080227 106.46,50.772 L106.46,39.54 L110.492,39.54 L110.492,50.52 C110.492,52.9440121 111.391991,54.156 113.192,54.156 C114.656007,54.156 116.35999,53.352008 118.304,51.744 Z M130.344,57 L126.312,57 L126.312,31.98 L130.344,31.584 L130.344,57 Z M139.108,39.684 L142.276,39.684 L143.5,42.78 L139.108,42.78 L139.108,51.096 C139.108,52.0320047 139.317998,52.7819972 139.738,53.346 C140.158002,53.9100028 140.787996,54.192 141.628,54.192 C142.180003,54.192 142.779997,54.0480014 143.428,53.76 L144.544,56.748 C144.183999,56.9880012 143.686004,57.1979991 143.05,57.378 C142.413997,57.5580009 141.832003,57.648 141.304,57.648 C139.359991,57.648 137.836006,57.144005 136.732,56.136 C135.627995,55.127995 135.076,53.6760095 135.076,51.78 L135.076,42.78 L132.664,42.78 L132.664,39.684 L135.076,39.684 L135.076,35.4 L139.108,34.608 L139.108,39.684 Z M158.384,51.744 L158.384,39.54 L162.452,39.54 L162.452,57 L159.716,57 L158.996,54.912 C157.987995,55.7280041 156.884006,56.3759976 155.684,56.856 C154.483994,57.3360024 153.356006,57.576 152.3,57.576 C148.459981,57.576 146.54,55.3080227 146.54,50.772 L146.54,39.54 L150.572,39.54 L150.572,50.52 C150.572,52.9440121 151.471991,54.156 153.272,54.156 C154.736008,54.156 156.439991,53.352008 158.384,51.744 Z M170.064001,45.876 L170.064001,57 L166.032001,57 L166.032001,39.54 L168.192001,39.54 L169.524001,42.42 C170.388005,41.6999964 171.377995,41.040003 172.494001,40.44 C173.610006,39.839997 174.587996,39.54 175.428001,39.54 L176.256001,42.78 C175.391996,42.78 174.384006,43.079997 173.232001,43.68 C172.079995,44.280003 171.024005,45.0119957 170.064001,45.876 Z M193.408001,48.144 L193.408001,49.332 L181.312001,49.332 C181.672003,52.4520156 183.531984,54.012 186.892001,54.012 C187.828005,54.012 188.661997,53.8860013 189.394001,53.634 C190.126004,53.3819987 191.007996,52.9920026 192.040001,52.464 L193.264001,55.416 C191.319991,56.7600067 189.172012,57.432 186.820001,57.432 C183.651985,57.432 181.234009,56.6100082 179.566001,54.966 C177.897992,53.3219918 177.064001,51.0840142 177.064001,48.252 C177.064001,46.4279909 177.405997,44.8260069 178.090001,43.446 C178.774004,42.0659931 179.757994,40.9920038 181.042001,40.224 C182.326007,39.4559962 183.843992,39.072 185.596001,39.072 C188.164014,39.072 190.107994,39.9239915 191.428001,41.628 C192.748007,43.3320085 193.408001,45.5039868 193.408001,48.144 Z M181.384001,46.632 L189.520001,46.632 C189.304,45.2879933 188.860004,44.2680035 188.188001,43.572 C187.515997,42.8759965 186.616006,42.528 185.488001,42.528 C184.335995,42.528 183.406004,42.8879964 182.698001,43.608 C181.989997,44.3280036 181.552002,45.3359935 181.384001,46.632 Z M194.936001,55.776 L196.160001,52.968 C197.816009,53.760004 199.363994,54.156 200.804001,54.156 C201.716005,54.156 202.495998,53.9880017 203.144001,53.652 C203.792004,53.3159983 204.116001,52.8600029 204.116001,52.284 C204.116001,51.2279947 202.964012,50.3280037 200.660001,49.584 C196.819982,48.3359938 194.900001,46.5600115 194.900001,44.256 C194.900001,42.647992 195.499995,41.3820046 196.700001,40.458 C197.900007,39.5339954 199.53199,39.072 201.596001,39.072 C202.412005,39.072 203.389995,39.2279984 204.530001,39.54 C205.670007,39.8520016 206.623997,40.2719974 207.392001,40.8 L206.132001,43.536 C205.291997,43.1519981 204.518004,42.858001 203.810001,42.654 C203.101997,42.449999 202.340005,42.348 201.524001,42.348 C200.779997,42.348 200.156003,42.5279982 199.652001,42.888 C199.147998,43.2480018 198.896001,43.6919974 198.896001,44.22 C198.920001,44.628002 199.207998,44.9999983 199.760001,45.336 C200.312004,45.6720017 201.079996,46.0079983 202.064001,46.344 C206.024021,47.7600071 208.004001,49.6799879 208.004001,52.104 C208.004001,53.8080085 207.386007,55.1279953 206.150001,56.064 C204.913995,57.0000047 203.132012,57.468 200.804001,57.468 C199.939996,57.468 198.926007,57.3180015 197.762001,57.018 C196.597995,56.7179985 195.656004,56.3040026 194.936001,55.776 Z" id="Vultures-logo" fill="#4F66EE"></path>
    </g>
</svg>