<?xml version="1.0" standalone="no"?>
<!DOCTYPE svg PUBLIC "-//W3C//DTD SVG 20010904//EN"
 "http://www.w3.org/TR/2001/REC-SVG-20010904/DTD/svg10.dtd">
<svg version="1.0" xmlns="http://www.w3.org/2000/svg"
 width="674.000000pt" height="674.000000pt" viewBox="0 0 674.000000 674.000000"
 preserveAspectRatio="xMidYMid meet">
<metadata>
Created by potrace 1.11, written by Peter Selinger 2001-2013
</metadata>
<g transform="translate(0.000000,674.000000) scale(0.100000,-0.100000)"
fill="#000000" stroke="none">
<path d="M5115 6733 c-131 -18 -263 -81 -345 -163 -52 -51 -58 -63 -93 -170
-135 -422 -159 -890 -82 -1605 40 -370 48 -466 41 -534 -19 -188 -53 -253
-561 -1096 -373 -618 -512 -913 -679 -1435 -135 -425 -190 -725 -216 -1180
-12 -225 -17 -261 -40 -319 -9 -25 -21 -61 -25 -79 l-7 -32 424 0 c539 0 804
9 786 25 -7 7 -149 103 -315 215 -167 111 -303 208 -303 214 0 6 9 43 20 81
11 39 77 288 146 555 174 675 215 811 349 1150 108 273 146 335 274 442 109
90 169 129 416 268 308 172 472 285 586 400 53 54 103 113 111 131 40 86 48
805 18 1584 -21 550 -22 614 -16 649 l7 36 412 206 c227 113 420 213 430 223
17 17 9 22 -190 119 -361 175 -604 264 -833 302 -105 18 -238 23 -315 13z"/>
<path d="M3735 4849 c-193 -15 -462 -57 -629 -100 -327 -83 -882 -311 -1083
-445 -302 -201 -549 -558 -761 -1100 -71 -178 -192 -496 -192 -501 0 -8 101
11 305 58 116 26 352 77 525 113 459 96 469 99 899 208 428 108 490 128 626
195 488 244 864 740 974 1284 29 146 35 243 16 259 -36 30 -442 47 -680 29z"/>
<path d="M2999 2836 c-2 -3 -83 -12 -179 -21 -354 -31 -635 -76 -844 -135
-158 -45 -443 -153 -595 -226 -285 -137 -346 -198 -492 -487 -55 -109 -98
-201 -96 -203 2 -2 152 20 333 50 181 30 455 73 609 96 370 54 1215 196 1285
216 167 47 318 195 460 449 19 33 55 93 82 132 27 40 52 83 57 96 l9 24 -180
6 c-207 8 -443 9 -449 3z"/>
<path d="M2130 1609 c-609 -26 -836 -53 -1083 -130 -151 -46 -338 -144 -370
-192 -36 -56 -187 -532 -318 -1002 -27 -99 -57 -198 -65 -220 -9 -22 -18 -46
-21 -52 -4 -10 31 -13 153 -13 178 0 179 0 279 85 76 64 282 209 575 404 424
283 605 425 805 633 66 68 146 161 177 205 58 81 157 257 158 281 0 13 -1 13
-290 1z"/>
</g>
</svg>
